<svg xmlns="http://www.w3.org/2000/svg" xmlns:xlink="http://www.w3.org/1999/xlink" width="100" zoomAndPan="magnify" viewBox="0 0 75 74.999997" height="100" preserveAspectRatio="xMidYMid meet" version="1.0"><path fill="#10b981" d="M 10.648438 27.898438 C 9.488281 29.058594 9.488281 32.441406 10.648438 33.601562 C 11.316406 34.265625 18.40625 34.5 37.910156 34.5 C 62.492188 34.5 64.351562 34.40625 65.507812 33.128906 C 67.066406 31.40625 67.089844 29.695312 65.570312 28.179688 C 64.542969 27.152344 60.992188 27 37.972656 27 C 18.421875 27 11.316406 27.234375 10.648438 27.898438 M 30.828125 43.023438 C 27.484375 47.339844 24.75 51.566406 24.75 52.410156 C 24.75 54.929688 27.132812 55.5 37.675781 55.5 C 47.871094 55.5 49.546875 55.078125 49.460938 52.539062 C 49.398438 50.683594 39.457031 35.660156 38.121094 35.402344 C 37.332031 35.253906 34.789062 37.910156 30.828125 43.023438 " fill-opacity="1" fill-rule="evenodd"/></svg>
